<?xml version="1.0" encoding="utf-8"?>
<!-- Generator: Adobe Illustrator 22.1.0, SVG Export Plug-In . SVG Version: 6.00 Build 0)  -->
<svg version="1.1" id="Layer_1" xmlns="http://www.w3.org/2000/svg" xmlns:xlink="http://www.w3.org/1999/xlink" x="0px" y="0px"
	 viewBox="100 0 10000 1000" style="enable-background:new 0 0 0 0;" xml:space="preserve">
<style type="text/css">
	.st0{fill:#E54250;}
	.st1{fill:#FFFFFF;}
</style>
<path class="st0" d="M2902.7,313.9c-1.9-54.4-22.9-105.3-59.2-143.4c-37.1-39-86.2-60.4-138.2-60.4c0,0,0,0,0,0
	c-36.2,0-68.7,6.9-96.5,20.5c-17.8,8.7-33.4,20-46.7,33.7c-13.3-13.8-28.9-25-46.7-33.7c-27.8-13.6-60.3-20.5-96.5-20.5
	c-52,0-101.1,21.5-138.2,60.4c-36.3,38.1-57.4,89-59.2,143.4c-4.2,69.9,10,136.4,42,197.5c49.5,94.6,140.7,175.2,271.1,239.6
	c8.7,4.3,18.2,6.4,27.7,6.4s19-2.1,27.7-6.4c130.3-64.4,221.5-145,271.1-239.6C2892.7,450.3,2906.8,383.9,2902.7,313.9z M2561.9,262
	c17.9,24.7,36.7,56.7,37.1,78.5c-0.2,3.5-0.8,6.8-1.8,10c-0.1,0.3-0.2,0.7-0.4,1c-5.2,14.2-18.8,24.3-34.8,24.3c0,0-0.1,0-0.1,0
	c-16,0-29.6-10-34.8-24.3c-0.1-0.3-0.2-0.7-0.4-1c-1-3.2-1.7-6.5-1.8-10C2525.3,319.1,2543.3,287.5,2561.9,262z M2563,697.3
	c-0.7,0.3-1.5,0.3-2.2,0c-192.3-95-289-226.5-279.7-380.1c0-0.3,0-0.6,0-0.8c2.7-82,63.1-146.2,137.5-146.2
	c47.2,0,82.6,14.2,105.7,42.3c-6.2,7.8-13.5,17.6-20.9,28.6c-23.6,35.3-36.5,66.7-38.4,93.6c-0.2,1.4-0.3,2.8-0.3,4.2
	c0,0.9,0,1.9,0.1,2.8c0,10.7,1.9,20.8,5.6,29.9c4.9,13.9,13,26.5,23.9,37c18.2,17.6,42.2,27.4,67.5,27.4c0,0,0.1,0,0.1,0
	c25.4,0,49.3-9.7,67.5-27.4c10.8-10.5,18.9-23.2,23.9-37c3.7-9.1,5.5-19.2,5.6-29.9c0-0.9,0.1-1.9,0.1-2.8c0-1.5-0.1-2.9-0.3-4.3
	c-3.2-45.4-38.1-95.6-59.3-122.2c23.1-28,58.6-42.2,105.7-42.2c74.4,0,134.8,64.2,137.5,146.2c0,0.3,0,0.6,0,0.8
	C2852,470.8,2755.3,602.3,2563,697.3z"/>
<g>
	<path class="st1" d="M110.7,253.6v-51.1h319.9v51.1H302.5v434h-63.7v-434H110.7z"/>
	<path class="st1" d="M578.3,303.3v65.1c22.9-47.6,61.8-71.4,116.9-71.4v66.5h-16.8c-32.7,0-57.5,8.5-74.5,25.6
		c-17,17-25.5,46.5-25.5,88.5v210h-63.7V303.3H578.3z"/>
	<path class="st1" d="M799.5,637.5c-35-37.6-52.5-85.6-52.5-144.2c0-58.6,17.4-105.9,52.2-142.1c34.8-36.2,78.5-54.3,131.3-54.3
		c32.7,0,61.3,7.7,85.8,23.1c24.5,15.4,43,35.5,55.6,60.2v-77h64.4v384.3h-64.4v-78.4c-12.6,25.2-31.1,45.6-55.6,61.3
		c-24.5,15.6-53.1,23.5-85.8,23.5C878.1,693.9,834.5,675.1,799.5,637.5z M1033.6,600.1c25.4-26.1,38.1-60.9,38.1-104.3
		c0-43.4-12.7-78.2-38.1-104.3c-25.4-26.1-56-39.2-91.7-39.2s-66.3,12.6-91.7,37.8c-25.4,25.2-38.1,59.5-38.1,102.9
		c0,43.4,12.8,78.6,38.5,105.7c25.7,27.1,56.2,40.6,91.7,40.6C977.7,639.3,1008.2,626.2,1033.6,600.1z"/>
	<path class="st1" d="M1197.1,303.3h67.9l117.6,324.8l118.3-324.8h68.6L1419,687.6h-72.1L1197.1,303.3z"/>
	<path class="st1" d="M1791.4,693.9c-55.1,0-99.9-18.2-134.4-54.6c-34.5-36.4-51.8-84.5-51.8-144.2c0-59.7,17.5-107.7,52.5-143.9
		c35-36.2,80.4-54.3,136.2-54.3c55.8,0,100.6,17.1,134.4,51.5c33.8,34.3,50.8,78,50.8,131.3c0,13.5-0.9,26.1-2.8,37.8h-305.9
		c1.9,38.3,13.9,68.5,36,90.6c22.2,22.2,50.5,33.3,85,33.3c26.1,0,48.2-5.8,66.2-17.5c18-11.7,31.1-27.1,39.5-46.2h68.6
		c-12.1,33.6-33,61.4-62.6,83.3C1873.4,682.9,1836.2,693.9,1791.4,693.9z M1877.5,382.7c-22.9-22.2-51.2-33.3-85-33.3
		c-33.8,0-62,10.9-84.3,32.6c-22.4,21.7-34.8,51.4-37.1,89.3h241.5C1912,434.4,1900.3,404.9,1877.5,382.7z"/>
	<path class="st1" d="M2058.1,687.6v-518h63.7v518H2058.1z"/>
</g>
<g>
	<path class="st1" d="M3005.9,687.6V202.5h273v51.1h-209.3v164.5h165.2v50.4h-165.2v219.1H3005.9z"/>
	<path class="st1" d="M3376.2,637.5c-35-37.6-52.5-85.6-52.5-144.2c0-58.6,17.4-105.9,52.2-142.1c34.8-36.2,78.5-54.3,131.3-54.3
		c32.7,0,61.3,7.7,85.8,23.1s43,35.5,55.6,60.2v-77h64.4v384.3h-64.4v-78.4c-12.6,25.2-31.1,45.6-55.6,61.3
		c-24.5,15.6-53.1,23.5-85.8,23.5C3454.8,693.9,3411.2,675.1,3376.2,637.5z M3610.4,600.1c25.4-26.1,38.1-60.9,38.1-104.3
		c0-43.4-12.7-78.2-38.1-104.3c-25.4-26.1-56-39.2-91.7-39.2s-66.3,12.6-91.7,37.8c-25.4,25.2-38.1,59.5-38.1,102.9
		c0,43.4,12.8,78.6,38.5,105.7c25.7,27.1,56.2,40.6,91.7,40.6C3554.5,639.3,3584.9,626.2,3610.4,600.1z"/>
	<path class="st1" d="M3881.6,303.3v62.3c26.1-45.7,67.9-68.6,125.3-68.6c29.4,0,56,7.1,79.8,21.4c23.8,14.2,41.8,34.9,53.9,62
		c14-26.1,33-46.6,57-61.3c24-14.7,51.5-22.1,82.3-22.1c43.4,0,79.3,14.1,107.8,42.4c28.5,28.2,42.7,68.5,42.7,120.8v227.5h-63v-217
		c0-38.7-9.5-68.1-28.3-88.2c-18.9-20.1-44.7-30.1-77.4-30.1c-32.7,0-58.5,10-77.3,30.1c-18.9,20.1-28.4,49.5-28.4,88.2v217h-63
		v-217c0-38.7-9.3-68.1-28-88.2c-18.7-20.1-44.4-30.1-77.3-30.1s-58.8,10-77.7,30.1c-18.9,20.1-28.3,49.5-28.3,88.2v217h-63.7V303.3
		H3881.6z"/>
</g>
<g>
</g>
<g>
</g>
<g>
</g>
<g>
</g>
<g>
</g>
<g>
</g>
</svg>
