<?xml version="1.0" encoding="iso-8859-1"?>
<!-- Generator: Adobe Illustrator 19.0.0, SVG Export Plug-In . SVG Version: 6.00 Build 0)  -->
<svg version="1.1" id="Capa_1" xmlns="http://www.w3.org/2000/svg" xmlns:xlink="http://www.w3.org/1999/xlink" x="0px" y="0px"
	 viewBox="0 0 512.005 512.005" style="enable-background:new 0 0 512.005 512.005;" xml:space="preserve" transform="scale(-1, 1)">
<g>
	<g>
		<path d="M234.672,181.399V42.668c0-4.309-2.603-8.213-6.592-9.835c-3.989-1.685-8.576-0.747-11.627,2.304L3.12,248.471
			c-4.16,4.16-4.16,10.923,0,15.083l213.333,213.333c2.048,2.027,4.779,3.115,7.552,3.115c1.365,0,2.752-0.256,4.075-0.811
			c3.989-1.643,6.592-5.547,6.592-9.856V331.052c46.208,2.304,226.496,17.835,256.427,119.957c1.515,5.077,6.549,8.363,11.755,7.552
			c5.248-0.768,9.152-5.248,9.152-10.56C512.005,203.287,284.635,182.913,234.672,181.399z M224.091,309.335
			c-3.243,0.427-5.568,1.088-7.595,3.093c-2.027,2.005-3.157,4.736-3.157,7.573v123.584L25.755,256.001L213.339,68.418v123.584
			c0,2.901,1.173,5.653,3.264,7.68c2.069,2.005,4.736,3.328,7.765,2.987l3.349-0.043c40.661,0,231.488,10.133,259.499,197.099
			C414.619,312.236,232.923,309.42,224.091,309.335z"/>
	</g>
</g>

</svg>
